<svg xmlns="http://www.w3.org/2000/svg" width="430" height="430" fill="none" viewBox="0 0 430 430"><g stroke-linecap="round" stroke-linejoin="round" stroke-width="12"><path stroke="#121331" d="M269.385 334.92s-15.024.02-52.184.03c-37.16.02-61.92-11.21-61.92-11.21l-42.77.02-.03-83.18-.02-47.07 42.77-.02c14.94-22.87 35.91-48.9 63.46-60.57l47.02-44.2c6.7-1.83 19.17 7.88 21.83 14.01 4.15 7.81 2.21 26.46-11.77 35.57-13.59 8.85-30.99 50.03-30.99 50.03l.01-.01 42.09-.21"/><path stroke="#121331" d="m269.369 188.12 35.35-.05c9.55 0 17.3 7.74 17.31 17.29 0 10.72-8.68 19.41-19.39 19.41l-29.03.04"/><path stroke="#121331" d="m292.979 224.78-19.55.05c-9.55 0-17.3-7.74-17.31-17.29 0-10.72 8.68-19.41 19.39-19.41l17.44-.04m.03 73.41-19.55.05c-9.55 0-17.3-7.74-17.31-17.29 0-10.72 8.68-19.41 19.39-19.41l17.44-.04m.03 73.4-19.55.05c-9.55 0-17.3-7.74-17.31-17.29 0-10.72 8.68-19.41 19.39-19.41l17.44-.04"/><path stroke="#121331" d="m273.62 261.53 20.71-.02c9.55 0 17.3 7.74 17.31 17.29 0 10.72-8.68 19.41-19.39 19.41l-22.82.02m-.02 0 83.73 7.17a18.154 18.154 0 0 1 15.47 17.92c.02 11.1-9.84 19.62-20.82 17.98l-78.36-6.36"/><path stroke="#121331" d="m273.6 224.83 26.71-.02c10.13 0 18.35 8.21 18.36 18.34 0 10.13-8.21 18.35-18.34 18.36l-26.71.02"/><path stroke="#08a88a" d="M62 192.98v142.89h50.46V170.91z"/><path stroke="#121331" d="M244.78 188.33s-16.84 47.65-60.04 47.33"/></g></svg>